<svg width="24" height="24" viewBox="0 0 24 24" fill="none" xmlns="http://www.w3.org/2000/svg">
<path fill-rule="evenodd" clip-rule="evenodd" d="M3.25 11.25L20.7498 11.25L20.7498 12.75L3.25 12.75L3.25 11.25Z" fill="white"/>
<path fill-rule="evenodd" clip-rule="evenodd" d="M4.00011 12.75C7.52766 12.75 10.4102 9.64786 10.4102 6.33995L10.4102 5.58995L8.91016 5.58995L8.91016 6.33995C8.91016 8.85153 6.6675 11.25 4.00011 11.25L3.25011 11.25L3.25011 12.75L4.00011 12.75Z" fill="white"/>
<path fill-rule="evenodd" clip-rule="evenodd" d="M4.00011 11.25C7.52766 11.25 10.4102 14.3521 10.4102 17.66L10.4102 18.41L8.91016 18.41L8.91016 17.66C8.91016 15.1485 6.6675 12.75 4.00011 12.75L3.25011 12.75L3.25011 11.25L4.00011 11.25Z" fill="white"/>
</svg>
