<svg width="24" height="24" viewBox="0 0 24 24" fill="none" xmlns="http://www.w3.org/2000/svg">
<path fill-rule="evenodd" clip-rule="evenodd" d="M20.75 12.75L3.25024 12.75L3.25024 11.25L20.75 11.25L20.75 12.75Z" fill="#FFF8F8"/>
<path fill-rule="evenodd" clip-rule="evenodd" d="M19.9999 11.25C16.4723 11.25 13.5898 14.3521 13.5898 17.66L13.5898 18.41L15.0898 18.41L15.0898 17.66C15.0898 15.1485 17.3325 12.75 19.9999 12.75L20.7499 12.75L20.7499 11.25L19.9999 11.25Z" fill="#FFF8F8"/>
<path fill-rule="evenodd" clip-rule="evenodd" d="M19.9999 12.75C16.4723 12.75 13.5898 9.64786 13.5898 6.33995L13.5898 5.58995L15.0898 5.58995L15.0898 6.33995C15.0898 8.85153 17.3325 11.25 19.9999 11.25L20.7499 11.25L20.7499 12.75L19.9999 12.75Z" fill="#FFF8F8"/>
</svg>
